# xmcd CD database file
#
# Track frame offsets:
#	150
#	22200
#	37275
#	47057
#	56625
#	73192
#	86362
#	109125
#	117545
#	137832
#	160022
#
# Disc length: 2370 seconds
#
# Revision: 0
# Processed by: cddbd v1.5PL3 Copyright (c) Steve Scherf et al.
# Submitted via: CDex 1.50
#
DISCID=a209400b
DTITLE=David Friesen - Inner Voices
DYEAR=1900
DGENRE=Jazz
TTITLE0=Early Mornining Rises
TTITLE1=Journey
TTITLE2=Amazing Grace
TTITLE3=New Temple
TTITLE4=Forever Unending
TTITLE5=Peace be Still
TTITLE6=O Come, O Come Immanuel
TTITLE7=Prelude
TTITLE8=Greensleeves
TTITLE9=Morning's Dance
TTITLE10=My Toby/My Friend
EXTD=
EXTT0=
EXTT1=
EXTT2=
EXTT3=
EXTT4=
EXTT5=
EXTT6=
EXTT7=
EXTT8=
EXTT9=
EXTT10=
PLAYORDER=
